# xmcd
#
# Track frame offsets:
# 150
# 21102
# 40071
# 58257
# 78674
# 96919
# 115504
# 134097
# 152343
# 169140
# 185913
# 204575
# 222921
#
# Disc length: 3113 seconds
#
#
# Revision: 31
# Processed by: cddbd v1.5PL3 Copyright (c) Steve Scherf et al.
# Submitted via: FreeRIP 2.00 
#
DISCID=b80c270d
DTITLE=Eros Ramazzotti - ER9S
DYEAR=2003
DGENRE=Latin
TTITLE0=Un segundo de paz
TTITLE1=Solo Ayer
TTITLE2=Una emocion para siempre
TTITLE3=Revivirte otra vez
TTITLE4=La noche son tus ojos
TTITLE5=Un ancla en el viento
TTITLE6=Piedra pequeña
TTITLE7=Mamara, una gran mujer
TTITLE8=El hombre que miraba las nubes
TTITLE9=Cancion para ella
TTITLE10=No te prometo nada
TTITLE11=Falsa salida
TTITLE12=Hay una melodia
EXTD=Album en Español YEAR: 2003
EXTT0=
EXTT1=
EXTT2=
EXTT3=
EXTT4=
EXTT5=
EXTT6=
EXTT7=
EXTT8=
EXTT9=
EXTT10=
EXTT11=
EXTT12=
PLAYORDER=
